<svg width="64" height="51" viewBox="0 0 64 51" fill="none" xmlns="http://www.w3.org/2000/svg">
<path d="M5.43158 42.1053V13.6C5.43158 13.0526 5.01053 12.6316 4.46316 12.6316C3.91579 12.6316 3.49474 13.0526 3.49474 13.6V42.1053C1.51579 42.5263 0 44.2947 0 46.4421C0 48.9263 2.02105 50.9053 4.46316 50.9053C6.90526 50.9053 8.92632 48.8842 8.92632 46.4421C8.92632 44.2947 7.45263 42.5263 5.43158 42.1053ZM4.46316 48.9684C3.07368 48.9684 1.93684 47.8316 1.93684 46.4421C1.93684 45.0526 3.07368 43.9158 4.46316 43.9158C5.85263 43.9158 6.98947 45.0526 6.98947 46.4421C6.98947 47.8316 5.85263 48.9684 4.46316 48.9684Z" fill="#BEB400"/>
<path d="M60.5053 42.1054V20.8422C60.5053 20.2948 60.0843 19.8738 59.5369 19.8738C58.9895 19.8738 58.5685 20.2948 58.5685 20.8422V42.1054C56.5474 42.5685 55.0737 44.3369 55.0737 46.4843C55.0737 48.9685 57.0948 50.9475 59.5369 50.9475C62.0211 50.9475 64 48.9264 64 46.4843C64 44.2948 62.4843 42.5264 60.5053 42.1054ZM59.5369 48.9685C58.1474 48.9685 57.0106 47.8317 57.0106 46.4422C57.0106 45.0527 58.1474 43.9159 59.5369 43.9159C60.9264 43.9159 62.0632 45.0527 62.0632 46.4422C62.0632 47.8317 60.9264 48.9685 59.5369 48.9685Z" fill="#BEB400"/>
<path d="M8.96842 21.642L22.0632 29.8946C22.1053 29.8946 22.1053 29.9367 22.1474 29.9367C22.1895 29.9367 22.1895 29.9788 22.2316 29.9788C22.3579 30.0209 22.4421 30.063 22.5684 30.063H54.5263C55.0737 30.063 55.4947 29.642 55.4947 29.0946C55.4947 28.5472 55.0737 28.1262 54.5263 28.1262H22.8632L9.97895 19.9999C9.51579 19.7051 8.92632 19.8314 8.63158 20.2946C8.37895 20.7578 8.50527 21.3893 8.96842 21.642Z" fill="#BEB400"/>
<path d="M14.8211 19.9999L21.179 23.9999C21.3474 24.0841 21.5158 24.1683 21.6842 24.1683C22.0211 24.1683 22.3158 23.9999 22.5263 23.7051C22.8211 23.242 22.6948 22.6525 22.2316 22.3578L15.8737 18.3578C15.4106 18.063 14.8211 18.1893 14.5263 18.6525C14.2316 19.1157 14.3579 19.7051 14.8211 19.9999Z" fill="#BEB400"/>
<path d="M55.4947 39.4525V34.1051C55.4947 33.5578 55.0737 33.1367 54.5263 33.1367H9.47367C8.9263 33.1367 8.50525 33.5578 8.50525 34.1051V39.4525C8.50525 39.9999 8.9263 40.4209 9.47367 40.4209C10.021 40.4209 10.4421 39.9999 10.4421 39.4525V35.0736H53.5579V39.4525C53.5579 39.9999 53.9789 40.4209 54.5263 40.4209C55.0737 40.4209 55.4947 39.9578 55.4947 39.4525Z" fill="#BEB400"/>
<path d="M51.5369 45.4736H12.4632C11.9158 45.4736 11.4948 45.8947 11.4948 46.4421C11.4948 46.9894 11.9158 47.4105 12.4632 47.4105H51.4947C52.0421 47.4105 52.4632 46.9894 52.4632 46.4421C52.5053 45.8947 52.0421 45.4736 51.5369 45.4736Z" fill="#BEB400"/>
<path d="M24.7157 14.5684H28.8V18.6526C28.8 20.1263 29.9789 21.3053 31.4526 21.3053H33.9789C35.4526 21.3053 36.6315 20.1263 36.6315 18.6526V14.5684H40.7157C42.1894 14.5684 43.3684 13.3895 43.3684 11.9158V9.38947C43.3684 7.91579 42.1894 6.73684 40.7157 6.73684H36.6315V2.65263C36.6315 1.17895 35.4526 0 33.9789 0H31.4526C29.9789 0 28.8 1.17895 28.8 2.65263V6.73684H24.7157C23.2421 6.73684 22.0631 7.91579 22.0631 9.38947V11.9158C22.0631 13.3895 23.2421 14.5684 24.7157 14.5684ZM24 9.38947C24 9.01052 24.3368 8.67368 24.7157 8.67368H29.7684C30.3157 8.67368 30.7368 8.25263 30.7368 7.70526V2.65263C30.7368 2.27368 31.0736 1.93684 31.4526 1.93684H33.9789C34.3578 1.93684 34.6947 2.27368 34.6947 2.65263V7.70526C34.6947 8.25263 35.1157 8.67368 35.6631 8.67368H40.7157C41.0947 8.67368 41.4315 9.01052 41.4315 9.38947V11.9158C41.4315 12.2947 41.0947 12.6316 40.7157 12.6316H35.6631C35.1157 12.6316 34.6947 13.0526 34.6947 13.6V18.6526C34.6947 19.0316 34.3578 19.3684 33.9789 19.3684H31.4526C31.0736 19.3684 30.7368 19.0316 30.7368 18.6526V13.6C30.7368 13.0526 30.3157 12.6316 29.7684 12.6316H24.7157C24.3368 12.6316 24 12.2947 24 11.9158V9.38947Z" fill="#BEB400"/>
</svg>
