<svg width="56" height="64" viewBox="0 0 56 64" fill="none" xmlns="http://www.w3.org/2000/svg">
<path d="M28.1719 64C23.9995 63.8886 19.9975 63.0807 16.3361 61.3814C12.3057 59.515 8.81455 56.8965 6.06138 53.2193C3.59204 49.9322 1.9742 46.4222 0.867258 42.5223C-0.154536 38.873 -0.268069 35.2237 0.498277 31.6859C1.49169 27.3124 3.10953 23.1338 6.28844 19.6238C8.81455 16.8381 11.5961 14.4703 15.0021 12.9103C16.7902 12.0746 18.6635 11.4617 20.48 10.6539C20.8206 10.5146 21.1896 9.95747 21.1612 9.59533C21.1328 7.78463 21.3599 6.08535 22.3533 4.44179C23.9144 1.87895 26.2134 0.513958 29.1085 0.12396C31.294 -0.15461 33.5079 -0.0431818 35.438 1.29395C37.6235 2.79823 38.8439 4.85965 38.8439 7.53392C38.8439 8.09105 38.8156 8.64819 38.7304 9.20533C38.475 11.2946 38.5317 11.1553 40.5469 12.1025C43.4136 13.4396 46.0533 15.2224 48.0969 17.646C49.7715 19.596 51.3325 21.6574 52.7517 23.7745C53.5181 24.8888 53.9722 26.2538 54.3979 27.5631C55.7603 31.7416 56.4415 36.0595 55.6752 40.4051C54.994 44.138 53.9438 47.8151 51.7583 51.0187C49.3457 54.5843 46.3655 57.7043 42.6189 59.9607C41.4552 60.6572 40.1496 61.2422 38.8723 61.66C36.5449 62.44 34.1607 63.1643 31.7765 63.7493C30.6128 64.0279 29.364 63.9443 28.1719 64ZM3.56366 36.5052C3.70558 36.533 3.84749 36.5609 4.01779 36.5887C3.76234 40.4609 4.92605 44.0544 6.71419 47.3972C7.7076 49.2637 9.01323 51.0465 10.5175 52.5508C12.3057 54.3336 14.3209 55.8936 16.4496 57.2586C18.919 58.8465 21.814 59.6264 24.7091 60.0164C30.4709 60.7964 35.8637 59.7936 40.8308 56.6179C43.3853 55.0022 45.6559 53.0522 47.4724 50.7679C49.6296 48.038 51.0203 44.7787 51.7299 41.3801C52.6949 36.7002 52.184 32.0759 50.4527 27.5909C49.9985 26.3931 49.4593 25.1952 48.7213 24.1645C47.0467 21.7967 45.1734 19.6238 42.7892 17.841C40.6889 16.281 38.5601 14.916 36.0056 14.3032C34.3594 13.9132 32.6848 13.746 31.0102 13.4674C28.995 13.1332 27.6042 11.8796 26.9514 10.1246C26.3553 8.56462 26.7527 7.06035 28.3706 6.0575C29.2504 5.50036 31.2373 5.16607 32.1171 5.69535C33.0822 6.30821 33.5647 7.11606 33.4228 8.34177C33.2525 9.53962 32.401 9.37247 31.6346 9.40033C30.6696 9.42819 31.067 8.81534 31.067 8.28605C31.0953 7.84034 30.8967 7.31106 30.6412 6.94892C30.4993 6.78178 29.8749 6.80963 29.591 6.94892C28.3989 7.56177 28.1151 9.37247 28.995 10.3753C30.2155 11.7403 31.9184 12.2139 33.3944 11.5453C34.9554 10.8489 36.0908 9.03819 35.7218 7.39463C35.3528 5.6675 34.5013 4.41393 32.5996 3.57822C29.8181 2.32466 26.6392 3.99608 25.5039 5.75107C24.1982 7.64534 24.4253 9.81819 25.2768 11.9075C25.5039 12.4367 25.8161 12.9382 26.0999 13.4396C25.4755 13.6067 24.8227 13.7739 24.1982 13.941C24.1415 13.941 24.1131 13.941 24.0563 13.9689C19.1744 14.4146 15.0305 16.281 11.3974 19.5403C8.64425 22.0474 6.68581 25.0002 5.49372 28.3709C4.55707 30.9616 4.18809 33.7752 3.56366 36.5052Z" fill="#BEB400"/>
</svg>
