<svg width="64" height="64" viewBox="0 0 64 64" fill="none" xmlns="http://www.w3.org/2000/svg">
<path d="M39.6046 2.70363H35.9391V0.971617C35.9391 0.422442 35.4756 0 34.9701 0C34.4223 0 34.001 0.422442 34.001 0.971617V2.70363H27.5547V0.971617C27.5547 0.422442 27.1334 0 26.5857 0C26.0379 0 25.6166 0.422442 25.6166 0.971617V2.70363H19.1703V0.971617C19.1703 0.422442 18.749 0 18.2013 0C17.6536 0 17.2322 0.422442 17.2322 0.971617V2.70363H10.8281V0.971617C10.8281 0.422442 10.4068 0 9.85903 0C9.3113 0 8.88998 0.422442 8.88998 0.971617V2.70363H4.84525C2.14876 2.70363 0 4.90033 0 7.56172V36.499C0 37.0482 0.421326 37.4706 0.96905 37.4706C1.51677 37.4706 1.9381 37.0482 1.9381 36.499V7.56172C1.9381 5.95644 3.24421 4.64687 4.84525 4.64687H8.88998V6.37888C8.88998 6.92805 9.3113 7.3505 9.85903 7.3505C10.4068 7.3505 10.8281 6.92805 10.8281 6.37888V4.64687H17.2744V6.37888C17.2744 6.92805 17.6957 7.3505 18.2434 7.3505C18.7911 7.3505 19.2125 6.92805 19.2125 6.37888V4.64687H25.6588V6.37888C25.6588 6.92805 26.0801 7.3505 26.6278 7.3505C27.1755 7.3505 27.5969 6.92805 27.5969 6.37888V4.64687H34.0431V6.37888C34.0431 6.92805 34.4645 7.3505 35.0122 7.3505C35.5599 7.3505 35.9812 6.92805 35.9812 6.37888V4.64687H39.6046C41.2057 4.64687 42.5118 5.95644 42.5118 7.56172V36.499C42.5118 37.0482 42.9331 37.4706 43.4808 37.4706C44.0286 37.4706 44.4499 37.0482 44.4499 36.499V7.56172C44.4499 4.90033 42.259 2.70363 39.6046 2.70363Z" fill="#BEB400"/>
<path d="M37.3716 21.7136C37.3716 21.1644 36.9503 20.7419 36.4026 20.7419H26.7542C26.2065 20.7419 25.7852 21.1644 25.7852 21.7136C25.7852 22.2627 26.2065 22.6852 26.7542 22.6852H36.4026C36.9503 22.6852 37.3716 22.2627 37.3716 21.7136Z" fill="#BEB400"/>
<path d="M14.1987 21.7136C14.1987 22.2627 14.6201 22.6852 15.1678 22.6852H21.909C22.4567 22.6852 22.878 22.2627 22.878 21.7136C22.878 21.1644 22.4567 20.7419 21.909 20.7419H15.1678C14.6201 20.7842 14.1987 21.2066 14.1987 21.7136Z" fill="#BEB400"/>
<path d="M8.38433 22.6852H10.3224C10.8702 22.6852 11.2915 22.2627 11.2915 21.7136C11.2915 21.1644 10.8702 20.7419 10.3224 20.7419H8.38433C7.83661 20.7419 7.41528 21.1644 7.41528 21.7136C7.41528 22.2627 7.87874 22.6852 8.38433 22.6852Z" fill="#BEB400"/>
<path d="M25.9957 55.9735C26.5434 55.9735 26.9647 55.5511 26.9647 55.0019C26.9647 54.4527 26.5434 54.0303 25.9957 54.0303H18.0748C17.527 54.0303 17.1057 54.4527 17.1057 55.0019C17.1057 55.5511 17.527 55.9735 18.0748 55.9735H25.9957Z" fill="#BEB400"/>
<path d="M13.3981 55.9735C13.9458 55.9735 14.3672 55.5511 14.3672 55.0019C14.3672 54.4527 13.9458 54.0303 13.3981 54.0303H8.38433C7.83661 54.0303 7.41528 54.4527 7.41528 55.0019C7.41528 55.5511 7.83661 55.9735 8.38433 55.9735H13.3981Z" fill="#BEB400"/>
<path d="M21.909 26.5715C21.3613 26.5715 20.9399 26.994 20.9399 27.5431C20.9399 28.0923 21.3613 28.5148 21.909 28.5148H32.7371C33.2848 28.5148 33.7061 28.0923 33.7061 27.5431C33.7061 26.994 33.2848 26.5715 32.7371 26.5715H21.909Z" fill="#BEB400"/>
<path d="M8.38433 28.5148H17.2743C17.822 28.5148 18.2434 28.0923 18.2434 27.5431C18.2434 26.994 17.822 26.5715 17.2743 26.5715H8.38433C7.83661 26.5715 7.41528 26.994 7.41528 27.5431C7.41528 28.0923 7.87874 28.5148 8.38433 28.5148Z" fill="#BEB400"/>
<path d="M58.8593 6.37882L57.8059 5.82964V1.60522C57.8059 1.22502 57.5953 0.887066 57.2582 0.718089L56.6262 0.422379C55.5308 -0.126796 54.2247 -0.126796 53.1292 0.422379L52.4551 0.760333C52.118 0.92931 51.9074 1.26726 51.9074 1.64746V5.82964L50.6855 6.50555C50.3906 6.67453 50.1799 7.01248 50.1799 7.35043V52.4673C50.1799 52.5095 50.1799 52.5518 50.1799 52.594C50.1799 52.6785 50.1799 52.7207 50.2221 52.8052L53.9297 63.324C54.0561 63.7042 54.4353 63.9577 54.8567 63.9577C55.278 63.9577 55.615 63.7042 55.7836 63.324L59.4912 52.8052V52.763C59.5334 52.6785 59.5334 52.594 59.5334 52.4673V8.44878C61.008 8.87123 62.0613 10.223 62.0613 11.7861V28.895C62.0613 29.4442 62.4827 29.8666 63.0304 29.8666C63.5781 29.8666 63.9994 29.4442 63.9994 28.895V11.7861C64.0416 8.87123 61.7664 6.50555 58.8593 6.37882ZM53.8876 2.23888L54.014 2.15439C54.5617 1.85868 55.2358 1.85868 55.7836 2.15439L55.91 2.23888V4.90027C55.2358 4.73129 54.5617 4.73129 53.8876 4.90027V2.23888ZM54.8988 60.0712L52.3708 52.8897L53.9719 52.0026C54.5617 51.7069 55.2358 51.7069 55.8257 52.0026L57.4267 52.8897L54.8988 60.0712ZM57.6374 37.9353V50.8197L56.7105 50.3128C55.5729 49.6792 54.1825 49.6792 53.045 50.3128L52.118 50.8197V38.3577V37.5973L53.9719 36.6257C54.5617 36.33 55.2358 36.33 55.8257 36.6257L57.6795 37.5973V37.9353H57.6374ZM57.6374 35.3584L56.7105 34.8514C55.5729 34.2178 54.1825 34.2178 53.045 34.8514L52.118 35.3584V7.89961L53.9719 6.92799C54.5617 6.63228 55.2358 6.63228 55.8257 6.92799L57.6795 7.89961V35.3584H57.6374Z" fill="#BEB400"/>
<path d="M22.4146 8.27979C21.8669 8.27979 21.4456 8.70223 21.4456 9.2514V11.6593H19.044C18.4963 11.6593 18.075 12.0818 18.075 12.6309C18.075 13.1801 18.4963 13.6026 19.044 13.6026H21.4456V16.0105C21.4456 16.5597 21.8669 16.9821 22.4146 16.9821C22.9623 16.9821 23.3837 16.5597 23.3837 16.0105V13.6026H25.7852C26.3329 13.6026 26.7543 13.1801 26.7543 12.6309C26.7543 12.0818 26.3329 11.6593 25.7852 11.6593H23.3837V9.2514C23.3837 8.70223 22.9202 8.27979 22.4146 8.27979Z" fill="#BEB400"/>
<path d="M43.4807 39.4139H36.4024C35.9811 39.4139 35.644 39.6674 35.5176 40.0476L33.3267 45.9195L28.018 31.7677C27.8916 31.3875 27.5124 31.134 27.1333 31.134C26.7119 31.134 26.3749 31.3875 26.2485 31.7677L23.3835 39.4139H20.8134C20.392 39.4139 20.055 39.6674 19.9286 40.0476L17.6956 45.8773L12.3868 31.7677C12.2604 31.3875 11.8813 31.134 11.5021 31.134C11.0807 31.134 10.7437 31.3875 10.6173 31.7677L7.75226 39.4139H1.01104C0.463318 39.4139 0.0419922 39.8363 0.0419922 40.3855C0.0419922 40.9347 0.463318 41.3571 1.01104 41.3571H8.42638C8.8477 41.3571 9.18476 41.1037 9.31116 40.7235L11.5021 34.8515L16.7686 49.0033C16.895 49.3835 17.2742 49.637 17.6534 49.637C18.0326 49.637 18.4118 49.3835 18.5382 49.0033L21.4032 41.3571H24.0154C24.4368 41.3571 24.7738 41.1037 24.9002 40.7235L27.0911 34.8515L32.3998 49.0033C32.5262 49.3835 32.9054 49.637 33.2846 49.637C33.7059 49.637 34.043 49.3835 34.1694 49.0033L37.0765 41.3571H43.4807C44.0284 41.3571 44.4497 40.9347 44.4497 40.3855C44.4497 39.8363 43.9863 39.4139 43.4807 39.4139Z" fill="#BEB400"/>
<path d="M43.4808 43.3003C42.9331 43.3003 42.5118 43.7227 42.5118 44.2719V51.2H36.6975C34.0431 51.2 31.8522 53.3544 31.8522 56.058V62.0567H4.84525C3.24421 62.0567 1.9381 60.7472 1.9381 59.1419V44.3142C1.9381 43.765 1.51677 43.3425 0.96905 43.3425C0.421326 43.3425 0 43.765 0 44.3142V59.1419C0 61.8033 2.14876 64 4.84525 64H32.8634C32.9898 64 33.1162 63.9577 33.2426 63.9155C33.369 63.8732 33.4533 63.7887 33.5375 63.7043L44.155 52.8897C44.155 52.8897 44.1971 52.8475 44.1971 52.8052C44.2392 52.7208 44.3235 52.6363 44.3656 52.5518C44.4078 52.4673 44.4078 52.3828 44.4078 52.2983C44.4078 52.2561 44.4078 52.2561 44.4078 52.2138V44.3564C44.4499 43.7227 43.9864 43.3003 43.4808 43.3003ZM33.8325 60.5782V55.9736C33.8325 54.3683 35.1386 53.0587 36.7396 53.0587H41.2057L33.8325 60.5782Z" fill="#BEB400"/>
</svg>
