<svg width="56" height="64" viewBox="0 0 56 64" fill="none" xmlns="http://www.w3.org/2000/svg">
<path d="M52.7458 37.1463V16.9726C52.7458 14.7014 50.9831 12.9646 48.678 12.9646H39.4576V5.48294V5.34934V5.21574C39.4576 2.27652 37.017 0.00531333 34.1695 0.00531333H12.339C9.35593 -0.128287 6.91525 2.27652 6.91525 5.08214V5.21574V5.34934V11.3614H3.79661C1.62712 11.495 0 13.0982 0 15.2358V35.4095C0 37.4135 1.62712 39.1503 3.79661 39.1503H25.0847V39.6847C25.0847 42.8911 26.5763 45.6967 29.5593 47.5671C32 49.1703 35.3898 50.1055 38.9153 50.1055C45.8305 50.1055 52.7458 46.4983 52.7458 39.6847V39.1503C53.5593 39.2839 54.1017 40.0855 54.1017 40.8871V55.0488C54.1017 56.1176 53.2881 56.9192 52.2034 56.9192H24.8136V55.316C24.8136 54.7816 24.4068 54.3808 23.8644 54.3808H18.5763C16.8136 52.644 13.5593 51.4415 10.1695 51.4415C4.61017 51.4415 0.271186 54.2472 0.271186 57.7208C0.271186 61.328 4.61017 64 10.1695 64C13.5593 64 16.8136 62.9312 18.5763 61.0608H23.8644C24.4068 61.0608 24.8136 60.66 24.8136 60.1256V58.656H52.2034C54.2373 58.656 56 57.0528 56 54.9152V40.8871C56 39.0167 54.5085 37.4135 52.7458 37.1463ZM1.89831 15.2358C1.89831 14.167 2.71186 13.3654 3.79661 13.3654H7.05085V26.4582C7.05085 26.5918 7.05085 26.5918 7.05085 26.7254C7.32203 29.3974 9.62712 31.4015 12.339 31.4015H25.0847V37.2799H3.79661C2.71186 37.2799 1.89831 36.4783 1.89831 35.4095V15.2358ZM12.339 22.5838H25.0847V29.3974H12.339C10.4407 29.3974 8.94915 27.9278 8.94915 26.0574C8.81356 24.187 10.4407 22.5838 12.339 22.5838ZM8.81356 12.163V5.61654C8.81356 5.48294 8.81356 5.48294 8.81356 5.34934V5.21574V5.08214C8.81356 3.21173 10.3051 1.74212 12.2034 1.74212H16.5424V20.7134H12.339C11.1186 20.7134 9.8983 21.1142 8.94915 21.9158V12.6974C8.94915 12.5638 8.94915 12.5638 8.94915 12.4302C8.94915 12.2966 8.94915 12.2966 8.81356 12.163ZM38.7797 48.1015C33.0847 48.1015 26.9831 45.4295 26.9831 39.5511V16.9726C26.9831 15.7702 27.9322 14.835 29.1525 14.835H48.5424C49.7627 14.835 50.7119 15.7702 50.7119 16.9726V39.5511C50.8475 43.6927 47.0508 48.1015 38.7797 48.1015ZM37.5593 5.61654V13.0982H29.1525C26.8475 13.0982 25.0847 14.835 25.0847 17.1062V20.847H18.5763V1.74212H34.1695C36.0678 1.74212 37.5593 3.21173 37.5593 5.08214V5.21574V5.34934C37.5593 5.48294 37.5593 5.48294 37.5593 5.61654ZM22.9153 56.1176V59.1904H19.3898V56.1176H22.9153ZM10.1695 62.1296C5.83051 62.1296 2.16949 60.1256 2.16949 57.7208C2.16949 55.316 5.83051 53.312 10.1695 53.312C13.2881 53.312 16 54.3808 17.3559 55.8504V59.5912C16.1356 61.0608 13.2881 62.1296 10.1695 62.1296Z" fill="#BEB400"/>
</svg>
